# File created by Blade
# Date/Time:  Tue Jan 27 17:01:45 2015
#---------------------------------------------------------
:version 1.10
:name HOM
:units
  mass 1.0
  length 1.000000
  angle deg
:documentation
     Acclaim Skeleton File
:root
   axis xyz
   order TX TY TZ RX RY RZ
   position 0.000000 0.000000 0.000000
   orientation 0 0 0
:bonedata
   begin
      id 1
      name Spine_dum
      direction 0.000000 1.000000 0.000000
      length 7.539951
      axis 0.0 0.0 0.0 xyz
   end
   begin
      id 2
      name LeftUpLeg_dum
      direction 1.000000 0.000000 0.000000
      length 3.345476
      axis 0.0 0.0 0.0 xyz
   end
   begin
      id 3
      name RightUpLeg_dum
      direction -1.000000 0.000000 0.000000
      length 3.345476
      axis 0.0 0.0 0.0 xyz
   end
   begin
      id 4
      name Spine
      direction 0.000000 1.000000 0.000000
      length 0.000000
      axis 0.0 0.0 0.0 xyz
      dof rx ry rz
   end
   begin
      id 5
      name Spine_dum1
      direction 0.000000 1.000000 0.000000
      length 15.093809
      axis 0.0 0.0 0.0 xyz
   end
   begin
      id 6
      name Spine_dum2
      direction 0.000000 1.000000 0.000000
      length 9.738928
      axis 0.0 0.0 0.0 xyz
   end
   begin
      id 7
      name Spine_dum3
      direction 0.000000 1.000000 0.000000
      length 9.738928
      axis 0.0 0.0 0.0 xyz
   end
   begin
      id 8
      name Head
      direction 0.000000 1.000000 0.000000
      length 4.527550
      axis 0.0 0.0 0.0 xyz
      dof rx ry rz
   end
   begin
      id 9
      name LeftShoulder
      direction 1.000000 0.000000 0.000000
      length 7.084015
      axis 0.0 0.0 -90.0 xyz
      dof rx ry rz
   end
   begin
      id 10
      name LeftArm
      direction 1.000000 0.000000 0.000000
      length 10.259319
      axis 0.0 0.0 -90.0 xyz
      dof rx ry rz
   end
   begin
      id 11
      name LeftForeArm
      direction 1.000000 0.000000 0.000000
      length 9.896984
      axis 0.0 0.0 -90.0 xyz
      dof ry rz rx
   end
   begin
      id 12
      name LeftHand
      direction 0.000000 0.000000 0.000000
      length 0.000000
      axis 0.0 0.0 -90.0 xyz
      dof rx ry rz
   end
   begin
      id 13
      name LeftHand_dum1
      direction 0.000000 0.000000 0.000000
      length 0.000000
      axis 0.0 0.0 -90.0 xyz
   end
   begin
      id 14
      name LeftHand_dum2
      direction 1.000000 0.000000 0.000000
      length 3.937000
      axis 0.0 0.0 -90.0 xyz
   end
   begin
      id 15
      name LeftHandThumb1
      direction 0.000000 0.000000 1.000000
      length 3.937000
      axis 0.0 0.0 -90.0 xyz
      dof rx rz ry
   end
   begin
      id 16
      name RightShoulder
      direction -1.000000 0.000000 0.000000
      length 7.084015
      axis 0.0 0.0 90.0 xyz
      dof rx ry rz
   end
   begin
      id 17
      name RightArm
      direction -1.000000 0.000000 0.000000
      length 10.259319
      axis 0.0 0.0 90.0 xyz
      dof rx ry rz
   end
   begin
      id 18
      name RightForeArm
      direction -1.000000 0.000000 0.000000
      length 9.896984
      axis 0.0 0.0 90.0 xyz
      dof ry rz rx
   end
   begin
      id 19
      name RightHand
      direction 0.000000 0.000000 0.000000
      length 0.000000
      axis 0.0 0.0 90.0 xyz
      dof rx ry rz
   end
   begin
      id 20
      name RightHand_dum1
      direction 0.000000 0.000000 0.000000
      length 0.000000
      axis 0.0 0.0 90.0 xyz
   end
   begin
      id 21
      name RightHand_dum2
      direction -1.000000 0.000000 0.000000
      length 3.937000
      axis 0.0 0.0 90.0 xyz
   end
   begin
      id 22
      name RightHandThumb1
      direction 0.000000 0.000000 1.000000
      length 3.937000
      axis 0.0 0.0 90.0 xyz
      dof rx rz ry
   end
   begin
      id 23
      name LeftUpLeg
      direction 0.000000 -1.000000 0.000000
      length 19.114733
      axis 0.0 0.0 0.0 xyz
      dof rx ry rz
   end
   begin
      id 24
      name LeftLeg
      direction 0.000000 -1.000000 0.000000
      length 16.045604
      axis 0.0 0.0 0.0 xyz
      dof rx ry rz
   end
   begin
      id 25
      name LeftFoot
      direction 0.000000 -0.258819 0.965926
      length 5.543155
      axis 15.0 0.0 0.0 xyz
      dof rx ry rz
   end
   begin
      id 26
      name LeftToeBase
      direction 0.000000 0.000000 1.000000
      length 2.952750
      axis 0.0 0.0 0.0 xyz
      dof rx ry rz
   end
   begin
      id 27
      name RightUpLeg
      direction 0.000000 -1.000000 0.000000
      length 19.114733
      axis 0.0 0.0 0.0 xyz
      dof rx ry rz
   end
   begin
      id 28
      name RightLeg
      direction 0.000000 -1.000000 0.000000
      length 16.045604
      axis 0.0 0.0 0.0 xyz
      dof rx ry rz
   end
   begin
      id 29
      name RightFoot
      direction 0.000000 -0.258819 0.965926
      length 5.543155
      axis 15.0 0.0 0.0 xyz
      dof rx ry rz
   end
   begin
      id 30
      name RightToeBase
      direction 0.000000 0.000000 1.000000
      length 2.952750
      axis 0.0 0.0 0.0 xyz
      dof rx ry rz
   end
:hierarchy
   begin
      root Spine_dum LeftUpLeg_dum RightUpLeg_dum
      Spine_dum Spine
      LeftUpLeg_dum LeftUpLeg
      RightUpLeg_dum RightUpLeg
      Spine Spine_dum1 Spine_dum2 Spine_dum3
      Spine_dum1 Head
      Spine_dum2 LeftShoulder
      Spine_dum3 RightShoulder
      LeftShoulder LeftArm
      LeftArm LeftForeArm
      LeftForeArm LeftHand
      LeftHand LeftHand_dum1 LeftHand_dum2
      LeftHand_dum1 LeftHandThumb1
      RightShoulder RightArm
      RightArm RightForeArm
      RightForeArm RightHand
      RightHand RightHand_dum1 RightHand_dum2
      RightHand_dum1 RightHandThumb1
      LeftUpLeg LeftLeg
      LeftLeg LeftFoot
      LeftFoot LeftToeBase
      RightUpLeg RightLeg
      RightLeg RightFoot
      RightFoot RightToeBase
   end

# File created by Blade
# Date/Time:  Tue Jan 27 17:01:38 2015
# Frame Rate: 120.000 fps
#------------------------------------------------------
:FULLY-SPECIFIED
:DEGREES
2295
root -1.456543 36.837608 5.561018 7.949530 11.295357 0.176477
Spine -6.476440 11.995752 -6.533611
Head 3.616721 12.810753 -3.860584
LeftShoulder -7.492420 -8.857442 -2.996480
LeftArm -0.018023 -48.892584 -59.057596
LeftForeArm -58.049839 -0.000000 135.812390
LeftHand 9.175652 -0.000000 -28.217636
LeftHandThumb1 -26.253704 0.000000 33.147579
RightShoulder -0.558082 -22.776915 -3.230458
RightArm 25.858472 -33.337333 53.895248
RightForeArm -147.535633 0.000000 35.326786
RightHand -1.658985 -0.000000 -2.186290
RightHandThumb1 -24.326973 -0.000000 -32.862282
LeftUpLeg -6.811687 7.418023 5.392422
LeftLeg 7.108567 -0.000000 -0.000000
LeftFoot -13.761943 -1.022485 -20.643967
LeftToeBase 15.037234 -0.000000 -0.000000
RightUpLeg -6.064628 -15.063317 0.206873
RightLeg 11.308328 -0.000000 -0.000000
RightFoot -19.365630 -8.507363 15.881723
RightToeBase 10.862497 -0.000000 -0.000000
2296
root -1.455523 36.838258 5.561119 7.956511 11.299196 0.182737
Spine -6.485331 12.014799 -6.526304
Head 3.610673 12.787310 -3.864658
LeftShoulder -7.486084 -8.849263 -3.080751
LeftArm -0.130670 -48.880427 -59.028663
LeftForeArm -58.391120 -0.000000 135.182365
LeftHand 9.319816 -0.000000 -27.798369
LeftHandThumb1 -26.253704 0.000000 33.147579
RightShoulder -0.566736 -22.790275 -3.236800
RightArm 25.824881 -33.325859 53.930470
RightForeArm -147.532432 -0.000000 35.303474
RightHand -1.668202 0.000000 -2.159926
RightHandThumb1 -24.326973 -0.000000 -32.862282
LeftUpLeg -6.804122 7.402667 5.386318
LeftLeg 7.080124 -0.000000 -0.000000
LeftFoot -13.746833 -1.004872 -20.645098
LeftToeBase 15.046466 -0.000000 -0.000000
RightUpLeg -6.057339 -15.093747 0.203622
RightLeg 11.277096 -0.000000 -0.000000
RightFoot -19.352758 -8.506263 15.861390
RightToeBase 10.862492 -0.000000 -0.000000
2297
root -1.454755 36.838822 5.560780 7.963796 11.297596 0.187464
Spine -6.496494 12.053850 -6.514641
Head 3.620227 12.760529 -3.881225
LeftShoulder -7.366394 -8.979396 -3.133177
LeftArm -0.654159 -48.878450 -58.700944
LeftForeArm -58.731448 -0.000000 134.494530
LeftHand 9.404448 -0.000000 -27.086465
LeftHandThumb1 -26.253704 0.000000 33.147579
RightShoulder -0.578437 -22.761114 -3.245427
RightArm 25.734882 -33.335974 53.995280
RightForeArm -147.549586 -0.000000 35.299634
RightHand -1.664175 -0.000000 -2.165690
RightHandThumb1 -24.326973 -0.000000 -32.862282
LeftUpLeg -6.804877 7.394925 5.379595
LeftLeg 7.066866 -0.000000 -0.000000
LeftFoot -13.743225 -0.991810 -20.653851
LeftToeBase 15.049745 -0.000000 -0.000000
RightUpLeg -6.054558 -15.118033 0.199703
RightLeg 11.255481 -0.000000 -0.000000
RightFoot -19.330710 -8.479970 15.863611
RightToeBase 10.837816 -0.000000 -0.000000
2298
root -1.453785 36.839073 5.560176 7.970255 11.295508 0.193306
Spine -6.509904 12.080987 -6.499075
Head 3.641731 12.715421 -3.889001
LeftShoulder -7.328547 -8.969796 -3.230538
LeftArm -0.831307 -48.839320 -58.586234
LeftForeArm -58.980441 -0.000000 133.669529
LeftHand 9.251471 -0.000000 -26.090449
LeftHandThumb1 -26.253704 0.000000 33.147579
RightShoulder -0.591484 -22.790712 -3.257569
RightArm 25.734734 -33.334422 53.996967
RightForeArm -147.551277 -0.000000 35.278309
RightHand -1.676852 0.000000 -2.202061
RightHandThumb1 -24.326973 -0.000000 -32.862282
LeftUpLeg -6.806954 7.390993 5.373610
LeftLeg 7.060647 -0.000000 -0.000000
LeftFoot -13.738290 -0.993971 -20.661400
LeftToeBase 15.063870 -0.000000 -0.000000
RightUpLeg -6.052973 -15.124169 0.194717
RightLeg 11.235673 -0.000000 -0.000000
RightFoot -19.344925 -8.447071 15.870094
RightToeBase 10.939524 -0.000000 -0.000000
2299
root -1.453457 36.839563 5.559490 7.976512 11.294833 0.197520
Spine -6.519985 12.112279 -6.484601
Head 3.652825 12.690330 -3.902108
LeftShoulder -7.293118 -8.935757 -3.338507
LeftArm -0.952516 -48.769267 -58.497635
LeftForeArm -59.162686 0.000000 132.738866
LeftHand 9.317344 0.000000 -25.360303
LeftHandThumb1 -26.253704 0.000000 33.147579
RightShoulder -0.597704 -22.805010 -3.261389
RightArm 25.714759 -33.348673 53.990531
RightForeArm -147.554410 -0.000000 35.272151
RightHand -1.659837 -0.000000 -2.240659
RightHandThumb1 -24.326973 -0.000000 -32.862282
LeftUpLeg -6.809047 7.381662 5.369349
LeftLeg 7.051172 -0.000000 -0.000000
LeftFoot -13.728217 -0.991381 -20.673089
LeftToeBase 15.057712 -0.000000 -0.000000
RightUpLeg -6.051046 -15.119445 0.190834
RightLeg 11.221723 -0.000000 -0.000000
RightFoot -19.313237 -8.493811 15.823198
RightToeBase 10.836377 -0.000000 -0.000000
2300
root -1.453335 36.840281 5.559240 7.980893 11.293569 0.201211
Spine -6.528358 12.145513 -6.468764
Head 3.660138 12.673033 -3.921520
LeftShoulder -7.269803 -8.942984 -3.436396
LeftArm -1.112275 -48.654359 -58.371214
LeftForeArm -59.429164 -0.000000 131.698383
LeftHand 9.226247 -0.000000 -24.641629
LeftHandThumb1 -26.253704 0.000000 33.147579
RightShoulder -0.599493 -22.805194 -3.258482
RightArm 25.670499 -33.364329 53.987883
RightForeArm -147.546393 -0.000000 35.276327
RightHand -1.639331 -0.000000 -2.299583
RightHandThumb1 -24.326973 -0.000000 -32.862282
LeftUpLeg -6.812926 7.382991 5.364284
LeftLeg 7.049430 -0.000000 -0.000000
LeftFoot -13.722522 -0.979191 -20.664027
LeftToeBase 15.054195 -0.000000 -0.000000
RightUpLeg -6.046851 -15.131156 0.190238
RightLeg 11.196407 -0.000000 -0.000000
RightFoot -19.321351 -8.452254 15.846843
RightToeBase 10.931744 -0.000000 -0.000000
2301
root -1.453321 36.840407 5.557984 7.986694 11.288095 0.206258
Spine -6.534177 12.177446 -6.449769
Head 3.667069 12.647535 -3.934507
LeftShoulder -7.246861 -8.922591 -3.530184
LeftArm -1.265388 -48.550856 -58.268726
LeftForeArm -59.543007 -0.000000 130.562064
LeftHand 9.065157 -0.000000 -23.738936
LeftHandThumb1 -26.253704 0.000000 33.147579
RightShoulder -0.600444 -22.811538 -3.263568
RightArm 25.646001 -33.386933 53.971534
RightForeArm -147.557673 -0.000000 35.281736
RightHand -1.581502 -0.000000 -2.395006
RightHandThumb1 -24.326973 -0.000000 -32.862282
LeftUpLeg -6.818518 7.376016 5.361022
LeftLeg 7.052944 -0.000000 -0.000000
LeftFoot -13.724081 -0.990533 -20.698239
LeftToeBase 15.076980 -0.000000 -0.000000
RightUpLeg -6.049326 -15.111783 0.184801
RightLeg 11.190986 -0.000000 -0.000000
RightFoot -19.306980 -8.505885 15.838265
RightToeBase 10.844254 -0.000000 -0.000000
